name C:\Users\tom_v\MusculoskeletalSpecialization\ResultsSprinting\Case_3\motion.mot
datacolumns 32
datarows 7
range 0.14380781 0.17832169
endheader 
time	pelvis_tilt	pelvis_list	pelvis_rotation	pelvis_tx	pelvis_ty	pelvis_tz	hip_flexion_r	hip_adduction_r	hip_rotation_r	knee_angle_r	ankle_angle_r	subtalar_angle_r	mtp_angle_r	hip_flexion_l	hip_adduction_l	hip_rotation_l	knee_angle_l	ankle_angle_l	subtalar_angle_l	mtp_angle_l	lumbar_extension	lumbar_bending	lumbar_rotation	arm_flex_r	arm_add_r	arm_rot_r	elbow_flex_r	arm_flex_l	arm_add_l	arm_rot_l	elbow_flex_l	
          0.14380781	        -13.21641972	          1.71876098	          0.31383647	          0.46745815	          0.88392513	          0.00625846	         15.53274353	          4.24720623	          5.53448768	        -40.05321007	         17.27806887	         -0.09505127	         37.78798612	         41.03878087	          2.26819541	         -3.19822229	        -71.06919376	         21.09558633	          5.42223047	          2.33845402	         -2.02496063	         -1.79440798	          2.76571811	         17.93514077	          0.56163201	         18.19452708	          0.66553759	         -7.24029894	         -6.89222194	          2.05296623	         73.48543828	
          0.14956013	        -13.25670028	          1.94504524	          0.35231242	          0.48655645	          0.88606062	          0.00626078	         13.88743861	          3.71228370	          5.21633500	        -38.97274082	         15.80664158	          0.60579340	         39.72224665	         42.19146760	          2.53961255	         -3.36127945	        -69.80380458	         21.22999797	          5.28746447	          2.15722645	         -2.04681130	         -2.23105402	          3.02215738	         17.96009753	          0.60830244	         17.91724331	          0.33444698	         -7.77499317	         -6.94869366	          1.76075059	         75.32776166	
          0.15531244	        -13.29413121	          2.15472056	          0.39635914	          0.50575448	          0.88808689	          0.00624005	         12.25881607	          3.19819339	          4.90821353	        -37.92490516	         14.31596195	          1.36397727	         41.38862881	         43.27145079	          2.79792078	         -3.49577985	        -68.40674956	         21.30198633	          5.18925680	          1.98826120	         -2.05900060	         -2.64895870	          3.26900676	         17.92518508	          0.62695172	         17.68159754	          0.13638898	         -8.25790030	         -6.99646833	          1.50877717	         76.99547861	
          0.16106475	        -13.32835933	          2.34322312	          0.44437667	          0.52503348	          0.88997451	          0.00619845	         10.66993039	          2.71059980	          4.61331126	        -36.95696039	         12.85082513	          2.19339298	         42.68123844	         44.28084255	          3.03942119	         -3.59828922	        -66.89031732	         21.32323291	          5.12178544	          1.83029971	         -2.06318751	         -3.04175980	          3.50511665	         17.84534648	          0.62451197	         17.50142669	          0.03520249	         -8.68870042	         -7.03622097	          1.29500171	         78.49030809	
          0.16681706	        -13.35912563	          2.50890751	          0.49568313	          0.54437791	          0.89170573	          0.00614103	          9.14151664	          2.25558936	          4.33899653	        -36.10559994	         11.40124682	          3.07306665	         43.60266354	         45.22115387	          3.26342102	         -3.66563139	        -65.26538101	         21.30444662	          5.07912931	          1.68200917	         -2.06112915	         -3.40752254	          3.72877991	         17.73296058	          0.60764928	         17.38376317	          0.00094554	         -9.06658718	         -7.06959518	          1.11810111	         79.81255308	
          0.17256938	        -13.38639401	          2.65260398	          0.54952597	          0.56377296	          0.89326872	          0.00606814	          7.68899927	          1.83283086	          4.08846876	        -35.38999439	          9.93857380	          3.98827146	         44.21410685	         46.09358974	          3.47181101	         -3.69627117	        -63.54066364	         21.25549657	          5.05589048	          1.54289565	         -2.05490659	         -3.74651630	          3.93863164	         17.59856774	          0.58148687	         17.33006676	          0.00938849	         -9.39046029	         -7.09785915	          0.97754920	         80.96177273	
          0.17832169	        -13.41023829	          2.77373958	          0.60434200	          0.58320531	          0.89465486	          0.00597957	          6.32232797	          1.44251623	          3.86540412	        -34.81887366	          8.44690272	          4.92983977	         44.55541940	         46.89873722	          3.66308929	         -3.69264193	        -61.72304844	         21.18349281	          5.04783900	          1.41293368	         -2.04666298	         -4.05684328	          4.13365251	         17.45123121	          0.54968417	         17.33751261	          0.04149354	         -9.65985001	         -7.12145393	          0.87265616	         81.93740136	
